<svg width="117" height="39" viewBox="0 0 117 39" fill="none" xmlns="http://www.w3.org/2000/svg">
<path d="M7.83891 27.692C7.15091 27.692 6.41491 27.668 5.63091 27.62C4.84691 27.588 4.08691 27.54 3.35091 27.476C2.61491 27.412 1.97491 27.34 1.43091 27.26V23.444C2.02291 23.492 2.59891 23.54 3.15891 23.588C3.73491 23.62 4.27091 23.644 4.76691 23.66C5.27891 23.676 5.71091 23.684 6.06291 23.684C6.70291 23.684 7.18291 23.676 7.50291 23.66C7.82291 23.628 8.03891 23.572 8.15091 23.492C8.23091 23.428 8.28691 23.356 8.31891 23.276C8.35091 23.196 8.36691 23.1 8.36691 22.988C8.38291 22.876 8.39091 22.748 8.39091 22.604C8.39091 22.364 8.36691 22.18 8.31891 22.052C8.27091 21.924 8.17491 21.828 8.03091 21.764C7.88691 21.684 7.67091 21.62 7.38291 21.572C7.09491 21.524 6.71091 21.468 6.23091 21.404L3.42291 21.044C2.92691 20.98 2.51891 20.82 2.19891 20.564C1.87891 20.292 1.62291 19.94 1.43091 19.508C1.25491 19.06 1.12691 18.532 1.04691 17.924C0.982905 17.3 0.950905 16.612 0.950905 15.86C0.950905 14.772 1.11891 13.9 1.45491 13.244C1.79091 12.572 2.25491 12.06 2.84691 11.708C3.45491 11.356 4.15091 11.116 4.93491 10.988C5.71891 10.86 6.56691 10.796 7.47891 10.796C8.15091 10.796 8.83891 10.82 9.54291 10.868C10.2629 10.916 10.9349 10.98 11.5589 11.06C12.1989 11.124 12.7269 11.204 13.1429 11.3V15.068C12.7429 15.02 12.2629 14.98 11.7029 14.948C11.1589 14.9 10.5989 14.868 10.0229 14.852C9.44691 14.82 8.90291 14.804 8.39091 14.804C8.00691 14.804 7.69491 14.812 7.45491 14.828C7.21491 14.844 7.03091 14.892 6.90291 14.972C6.77491 15.052 6.67891 15.156 6.61491 15.284C6.56691 15.396 6.54291 15.54 6.54291 15.716C6.54291 15.988 6.56691 16.196 6.61491 16.34C6.66291 16.484 6.78291 16.588 6.97491 16.652C7.16691 16.7 7.47091 16.756 7.88691 16.82L10.4069 17.132C10.8229 17.18 11.2149 17.26 11.5829 17.372C11.9509 17.484 12.2949 17.66 12.6149 17.9C12.9349 18.124 13.2149 18.468 13.4549 18.932C13.5669 19.124 13.6549 19.372 13.7189 19.676C13.7989 19.98 13.8629 20.34 13.9109 20.756C13.9589 21.156 13.9829 21.62 13.9829 22.148C13.9829 23.156 13.8789 23.996 13.6709 24.668C13.4789 25.34 13.1909 25.876 12.8069 26.276C12.4389 26.676 11.9989 26.98 11.4869 27.188C10.9749 27.396 10.4069 27.532 9.78291 27.596C9.17491 27.66 8.52691 27.692 7.83891 27.692ZM21.0479 27.5V15.212H17.0159V10.988H30.7199V15.212H26.6639V27.5H21.0479ZM31.7461 27.5L36.3301 10.988H44.1301L48.7141 27.5H43.1461L42.5461 25.028H37.7701L37.1941 27.5H31.7461ZM38.6821 21.188H41.6101L40.2421 15.5H40.0261L38.6821 21.188ZM51.7445 27.5V10.988H60.4325C61.5365 10.988 62.4245 11.1 63.0965 11.324C63.7845 11.548 64.3045 11.892 64.6565 12.356C65.0085 12.804 65.2405 13.38 65.3525 14.084C65.4805 14.772 65.5445 15.58 65.5445 16.508C65.5445 17.26 65.4965 17.948 65.4005 18.572C65.3205 19.18 65.1445 19.716 64.8725 20.18C64.6005 20.644 64.1925 21.028 63.6485 21.332L65.9045 27.5H60.1445L58.1765 20.972L59.5685 21.764C59.4085 21.876 59.2405 21.948 59.0645 21.98C58.9045 21.996 58.6885 22.004 58.4165 22.004H57.3605V27.5H51.7445ZM57.3605 18.284H58.3685C58.7045 18.284 58.9765 18.276 59.1845 18.26C59.3925 18.228 59.5525 18.164 59.6645 18.068C59.7765 17.956 59.8485 17.788 59.8805 17.564C59.9125 17.324 59.9285 17.004 59.9285 16.604C59.9285 16.22 59.9205 15.916 59.9045 15.692C59.8885 15.468 59.8325 15.3 59.7365 15.188C59.6405 15.076 59.4805 15.004 59.2565 14.972C59.0485 14.924 58.7445 14.9 58.3445 14.9H57.3605V18.284ZM72.7454 27.5V15.212H68.7134V10.988H82.4174V15.212H78.3614V27.5H72.7454ZM93.7623 27.5V10.988H99.3783V27.5H93.7623ZM106.865 27.5V15.212H102.833V10.988H116.537V15.212H112.481V27.5H106.865Z" fill="#37BBFF"/>
</svg>
