<svg width="24" height="25" viewBox="0 0 24 25" fill="none" xmlns="http://www.w3.org/2000/svg">
<path d="M7.443 5.84961C8.082 5.84961 8.673 5.89961 9.213 6.04761C9.754 6.14661 10.197 6.34461 10.59 6.59161C10.984 6.83861 11.279 7.18561 11.475 7.63061C11.672 8.07561 11.771 8.62061 11.771 9.21361C11.771 9.90661 11.623 10.4996 11.279 10.9446C10.984 11.3906 10.492 11.7856 9.902 12.0826C10.738 12.3306 11.377 12.7756 11.771 13.3686C12.164 13.9626 12.41 14.7046 12.41 15.5456C12.41 16.2386 12.262 16.8316 12.016 17.3266C11.771 17.8216 11.377 18.2666 10.934 18.5636C10.4528 18.882 9.92084 19.116 9.361 19.2556C8.771 19.4046 8.181 19.5036 7.591 19.5036H1V5.84961H7.443ZM7.049 11.3896C7.59 11.3896 8.033 11.2416 8.377 10.9946C8.721 10.7476 8.869 10.3016 8.869 9.75761C8.869 9.46061 8.819 9.16361 8.721 8.96661C8.623 8.76861 8.475 8.61961 8.279 8.47161C8.07851 8.35924 7.863 8.27607 7.639 8.22461C7.393 8.17461 7.148 8.17461 6.852 8.17461H4V11.3906L7.049 11.3896ZM7.197 17.2276C7.492 17.2276 7.787 17.1776 8.033 17.1286C8.279 17.0786 8.525 16.9806 8.721 16.8316C8.92138 16.6868 9.08903 16.5015 9.213 16.2876C9.311 16.0406 9.41 15.7436 9.41 15.3976C9.41 14.7046 9.213 14.2096 8.82 13.8636C8.426 13.5666 7.885 13.4186 7.246 13.4186H4V17.2286L7.197 17.2276ZM16.689 17.1776C17.082 17.5736 17.672 17.7716 18.459 17.7716C19 17.7716 19.492 17.6236 19.885 17.3766C20.279 17.0796 20.525 16.7826 20.623 16.4856H23.033C22.639 17.6726 22.049 18.5136 21.263 19.0576C20.475 19.5526 19.541 19.8496 18.41 19.8496C17.6864 19.8518 16.9688 19.7175 16.295 19.4536C15.6887 19.2262 15.148 18.8525 14.721 18.3656C14.2643 17.9102 13.9267 17.3494 13.738 16.7326C13.492 16.0896 13.393 15.3976 13.393 14.6056C13.393 13.8636 13.492 13.1716 13.738 12.5276C13.9748 11.9076 14.3251 11.3372 14.771 10.8456C15.213 10.4006 15.754 10.0056 16.344 9.75761C17.0007 9.49367 17.7022 9.3592 18.41 9.36161C19.246 9.36161 19.984 9.51061 20.623 9.85661C21.263 10.2026 21.754 10.5986 22.147 11.1926C22.541 11.7366 22.837 12.3796 23.033 13.0726C23.131 13.7646 23.18 14.4576 23.131 15.2486H16C16 16.0406 16.295 16.7826 16.689 17.1786M19.787 11.9846C19.443 11.6386 18.902 11.4406 18.262 11.4406C17.8867 11.435 17.5156 11.5197 17.18 11.6876C16.885 11.8366 16.689 12.0346 16.492 12.2326C16.311 12.4239 16.1912 12.6648 16.148 12.9246C16.098 13.1726 16.049 13.3696 16.049 13.5676H20.475C20.377 12.8256 20.131 12.3316 19.787 11.9846ZM15.459 6.78961H20.967V8.12561H15.46L15.459 6.78961Z" fill="black"/>
</svg>
