<svg width="445" height="445" viewBox="0 0 445 445" fill="none" xmlns="http://www.w3.org/2000/svg">
<circle cx="222.5" cy="222.5" r="222.5" fill="#37BBFF"/>
<path d="M187.469 293.6C181.735 293.6 175.602 293.4 169.069 293C162.535 292.733 156.202 292.333 150.069 291.8C143.935 291.267 138.602 290.667 134.069 290V258.2C139.002 258.6 143.802 259 148.469 259.4C153.269 259.667 157.735 259.867 161.869 260C166.135 260.133 169.735 260.2 172.669 260.2C178.002 260.2 182.002 260.133 184.669 260C187.335 259.733 189.135 259.267 190.069 258.6C190.735 258.067 191.202 257.467 191.469 256.8C191.735 256.133 191.869 255.333 191.869 254.4C192.002 253.467 192.069 252.4 192.069 251.2C192.069 249.2 191.869 247.667 191.469 246.6C191.069 245.533 190.269 244.733 189.069 244.2C187.869 243.533 186.069 243 183.669 242.6C181.269 242.2 178.069 241.733 174.069 241.2L150.669 238.2C146.535 237.667 143.135 236.333 140.469 234.2C137.802 231.933 135.669 229 134.069 225.4C132.602 221.667 131.535 217.267 130.869 212.2C130.335 207 130.069 201.267 130.069 195C130.069 185.933 131.469 178.667 134.269 173.2C137.069 167.6 140.935 163.333 145.869 160.4C150.935 157.467 156.735 155.467 163.269 154.4C169.802 153.333 176.869 152.8 184.469 152.8C190.069 152.8 195.802 153 201.669 153.4C207.669 153.8 213.269 154.333 218.469 155C223.802 155.533 228.202 156.2 231.669 157V188.4C228.335 188 224.335 187.667 219.669 187.4C215.135 187 210.469 186.733 205.669 186.6C200.869 186.333 196.335 186.2 192.069 186.2C188.869 186.2 186.269 186.267 184.269 186.4C182.269 186.533 180.735 186.933 179.669 187.6C178.602 188.267 177.802 189.133 177.269 190.2C176.869 191.133 176.669 192.333 176.669 193.8C176.669 196.067 176.869 197.8 177.269 199C177.669 200.2 178.669 201.067 180.269 201.6C181.869 202 184.402 202.467 187.869 203L208.869 205.6C212.335 206 215.602 206.667 218.669 207.6C221.735 208.533 224.602 210 227.269 212C229.935 213.867 232.269 216.733 234.269 220.6C235.202 222.2 235.935 224.267 236.469 226.8C237.135 229.333 237.669 232.333 238.069 235.8C238.469 239.133 238.669 243 238.669 247.4C238.669 255.8 237.802 262.8 236.069 268.4C234.469 274 232.069 278.467 228.869 281.8C225.802 285.133 222.135 287.667 217.869 289.4C213.602 291.133 208.869 292.267 203.669 292.8C198.602 293.333 193.202 293.6 187.469 293.6ZM263.544 292V154.4H310.344V292H263.544Z" fill="white"/>
</svg>
