<svg width="31" height="31" viewBox="0 0 31 31" fill="none" xmlns="http://www.w3.org/2000/svg">
<ellipse cx="15" cy="15" rx="14" ry="15" fill="#D9D9D9"/>
<path fill-rule="evenodd" clip-rule="evenodd" d="M11.779 13H18.221C18.3214 12.7076 18.375 12.3991 18.375 12.0833C18.375 10.4443 16.9301 9 15 9C13.0699 9 11.625 10.4443 11.625 12.0833C11.625 12.3991 11.6786 12.7076 11.779 13ZM10.7357 13C10.6633 12.7053 10.625 12.3985 10.625 12.0833C10.625 9.82817 12.5838 8 15 8C17.4162 8 19.375 9.82817 19.375 12.0833C19.375 12.3985 19.3367 12.7053 19.2643 13H21V20C21 21.1046 20.1046 22 19 22H11C9.89543 22 9 21.1046 9 20V13H10.7357Z" fill="black"/>
</svg>
