<svg width="32" height="33" viewBox="0 0 32 33" fill="none" xmlns="http://www.w3.org/2000/svg">
<path d="M16.0013 3.16797C23.3653 3.16797 29.3347 9.1373 29.3347 16.5013C29.3347 23.8653 23.3653 29.8346 16.0013 29.8346C13.645 29.8384 11.3302 29.2149 9.29465 28.028L2.67332 29.8346L4.47599 23.2106C3.28811 21.1745 2.66405 18.8586 2.66799 16.5013C2.66799 9.1373 8.63732 3.16797 16.0013 3.16797ZM11.4573 10.2346L11.1907 10.2453C11.018 10.2558 10.8493 10.3012 10.6947 10.3786C10.55 10.4605 10.418 10.5629 10.3027 10.6826C10.1427 10.8333 10.052 10.964 9.95465 11.0906C9.46148 11.7318 9.19595 12.5191 9.19999 13.328C9.20265 13.9813 9.37332 14.6173 9.63999 15.212C10.1853 16.4146 11.0827 17.688 12.2667 18.868C12.552 19.152 12.832 19.4373 13.1333 19.7026C14.6045 20.9979 16.3577 21.932 18.2533 22.4306L19.0107 22.5466C19.2573 22.56 19.504 22.5413 19.752 22.5293C20.1403 22.5093 20.5195 22.4041 20.8627 22.2213C21.0373 22.1314 21.2077 22.0335 21.3733 21.928C21.3733 21.928 21.4307 21.8906 21.54 21.808C21.72 21.6746 21.8307 21.58 21.98 21.424C22.0907 21.3093 22.1867 21.1746 22.26 21.0213C22.364 20.804 22.468 20.3893 22.5107 20.044C22.5427 19.78 22.5333 19.636 22.5293 19.5466C22.524 19.404 22.4053 19.256 22.276 19.1933L21.5 18.8453C21.5 18.8453 20.34 18.34 19.6307 18.0173C19.5564 17.9849 19.4769 17.9664 19.396 17.9626C19.3048 17.9533 19.2126 17.9635 19.1257 17.9927C19.0387 18.0219 18.9591 18.0694 18.892 18.132C18.8853 18.1293 18.796 18.2053 17.832 19.3733C17.7767 19.4477 17.7004 19.5038 17.6131 19.5347C17.5257 19.5656 17.4311 19.5697 17.3413 19.5466C17.2545 19.5233 17.1694 19.4939 17.0867 19.4586C16.9213 19.3893 16.864 19.3626 16.7507 19.3146C15.9854 18.9807 15.2769 18.5295 14.6507 17.9773C14.4827 17.8306 14.3267 17.6706 14.1667 17.516C13.6421 17.0136 13.185 16.4453 12.8067 15.8253L12.728 15.6986C12.6715 15.6135 12.6258 15.5217 12.592 15.4253C12.5413 15.2293 12.6733 15.072 12.6733 15.072C12.6733 15.072 12.9973 14.7173 13.148 14.5253C13.2947 14.3386 13.4187 14.1573 13.4987 14.028C13.656 13.7746 13.7053 13.5146 13.6227 13.3133C13.2493 12.4013 12.8627 11.4933 12.4653 10.592C12.3867 10.4133 12.1533 10.2853 11.9413 10.26C11.8693 10.252 11.7973 10.244 11.7253 10.2386C11.5463 10.2297 11.3668 10.2315 11.188 10.244L11.4573 10.2346Z" fill="black"/>
</svg>
